<?xml version="1.0" encoding="UTF-8" standalone="no"?>
<!DOCTYPE svg PUBLIC "-//W3C//DTD SVG 1.1//EN" "http://www.w3.org/Graphics/SVG/1.1/DTD/svg11.dtd">
<svg xmlns="http://www.w3.org/2000/svg" xmlns:xlink="http://www.w3.org/1999/xlink" version="1.1" id="Capa_1" viewBox="0 0 456 456" width="456" height="456" xml:space="preserve">
    <rect width="100%" height="100%" fill="#483d8b"/>
    <g fill="White">
        <path d="M142.045 278.502 141.859 199.947c-.009-3.865 3.94-6.478 7.494-4.959l71.513 30.57c1.976.845 3.26 2.784 3.265 4.933l.186 78.556c.009 3.866-3.94 6.479-7.494 4.959L145.31 283.436C143.334 282.591 142.05 280.652 142.045 278.502zM305.895 203.644 239.902 232.225l.172 72.699 65.994-28.581L305.895 203.644M308.566 194.167c2.836-.007 5.382 2.275 5.389 5.372l.186 78.556c.005 2.149-1.27 4.095-3.242 4.949l-71.367 30.909c-.704.305-1.425.447-2.128.449-2.837.006-5.383-2.275-5.39-5.372l-.186-78.556c-.005-2.149 1.27-4.095 3.242-4.949l71.367-30.908C307.142 194.311 307.863 194.169 308.566 194.167L308.566 194.167zM227.478 149.92 159.021 180.486l68.6 30.241 68.457-30.566L227.478 149.92M227.459 141.598c.743-.002 1.487.151 2.183.457l75.24 33.168c4.268 1.882 4.282 7.933.023 9.834L229.822 218.582c-.694.31-1.437.465-2.181.467-.743.002-1.487-.151-2.183-.457L150.219 185.424c-4.268-1.882-4.282-7.933-.023-9.834L225.278 142.066C225.972 141.756 226.715 141.6 227.459 141.598L227.459 141.598z"/>
    </g>
</svg>
